<?xml version="1.0" encoding="UTF-8" standalone="no"?>
<svg
   xmlns:dc="http://purl.org/dc/elements/1.1/"
   xmlns:cc="http://creativecommons.org/ns#"
   xmlns:rdf="http://www.w3.org/1999/02/22-rdf-syntax-ns#"
   xmlns:svg="http://www.w3.org/2000/svg"
   xmlns="http://www.w3.org/2000/svg"
   xmlns:sodipodi="http://sodipodi.sourceforge.net/DTD/sodipodi-0.dtd"
   xmlns:inkscape="http://www.inkscape.org/namespaces/inkscape"
   version="1.1"
   x="0px"
   y="0px"
   viewBox="-11.807 -2.557 89 90"
   overflow="visible"
   enable-background="new -11.807 -2.557 100 100"
   xml:space="preserve"
   id="svg2"
   inkscape:version="0.91 r13725"
   sodipodi:docname="noun_60518_cc.svg"
   width="89"
   height="90"
   style="overflow:visible"><metadata
     id="metadata16"><rdf:RDF><cc:Work
         rdf:about=""><dc:format>image/svg+xml</dc:format><dc:type
           rdf:resource="http://purl.org/dc/dcmitype/StillImage" /><dc:title /></cc:Work></rdf:RDF></metadata><defs
     id="defs14" /><sodipodi:namedview
     pagecolor="#ffffff"
     bordercolor="#666666"
     borderopacity="1"
     objecttolerance="10"
     gridtolerance="10"
     guidetolerance="10"
     inkscape:pageopacity="0"
     inkscape:pageshadow="2"
     inkscape:window-width="1855"
     inkscape:window-height="1176"
     id="namedview12"
     showgrid="false"
     inkscape:zoom="7.552"
     inkscape:cx="64.450436"
     inkscape:cy="49.682088"
     inkscape:window-x="65"
     inkscape:window-y="24"
     inkscape:window-maximized="1"
     inkscape:current-layer="svg2" /><path
     d="m 33.270729,-0.699153 c -23.802,0 -43.097,19.295 -43.097,43.097 0,23.802 19.295,43.097003 43.097,43.097003 23.802,0 43.097,-19.295003 43.097,-43.097003 0,-23.802 -19.296,-43.097 -43.097,-43.097 z m 39.299,41.443 -20.823,0 c -1.341,-8.75 -8.896,-15.48 -18.016,-15.48 -0.123,0 -0.242,0.016 -0.364,0.019 l 0,-21.656 c 21.032,0.05 38.185,16.478 39.203,37.117 z m -49.964,30.000003 2.017,-11.443003 c 2.685,1.555 5.789,2.46 9.108,2.46 3.562,0 6.876,-1.041 9.688,-2.812 l 2.081,11.795003 -22.894,0 z m 24.076,-27.232003 c 0,7.141 -5.811,12.95 -12.95,12.95 -7.139,0 -12.95,-5.81 -12.95,-12.95 0,-0.601 0.056,-1.188 0.135,-1.768 l 11.451,0 1,0 13.18,0 c 0.078,0.579 0.134,1.167 0.134,1.768 z m -25.596,-2.768 c 1.178,-5.382 5.705,-9.524 11.281,-10.111 l 0,10.111 -11.281,0 z m 12.281,0 0,-10.166 c 0.122,-0.004 0.241,-0.019 0.364,-0.019 6.189,0 11.373,4.369 12.646,10.185 l -13.01,0 z m -1,-37.097 0,21.687 c -8.5,0.633 -15.377,7.103 -16.65,15.411 l -21.7460002,0 c 1.004,-20.375 17.7350002,-36.634 38.3960002,-37.098 z m 0.904,78.099003 c -21.732,0 -39.3500002,-17.487003 -39.3500002,-39.061003 0,-0.315 0.017,-0.627 0.024,-0.941 l 21.6290002,0 c -0.057,0.582 -0.09,1.171 -0.09,1.768 0,4.895 1.947,9.336 5.096,12.617 l -3.742,21.214003 4.465,0.785 0.949,-5.384 23.115,0 0.485,0 0.947,5.371 4.461,-0.787 -3.841,-21.789003 c 2.828,-3.216 4.56,-7.419 4.56,-12.027 0,-0.597 -0.033,-1.186 -0.09,-1.768 l 20.705,0 c 0.008,0.314 0.024,0.626 0.024,0.941 0.001,21.574 -17.616,39.061003 -39.347,39.061003 z"
     id="path4"
     inkscape:connector-curvature="0" /><rect
     x="25.36673"
     y="50.743851"
     width="16"
     height="1"
     id="rect6"
     style="fill:#ff0000" /><rect
     x="28.36673"
     y="46.743851"
     width="9"
     height="1"
     id="rect8"
     style="fill:#ff0000" /><rect
     x="30.36673"
     y="42.743851"
     width="5"
     height="1"
     id="rect10"
     style="fill:#ff0000" /></svg>